<svg xmlns="http://www.w3.org/2000/svg" width="198.134" height="19.733" viewBox="0 0 198.134 19.733"><path d="M156.315,225.665V219.7l-7.866-8.205v14.172H145V206h2.916l8.408,8.849V206h3.458v19.665Z" transform="translate(-122.211 -205.995)" fill="#231815"/><path d="M338.382,225.665V219.7l-7.864-8.205v14.172H327.06V206h2.925l8.406,8.849V206h3.458v19.665Z" transform="translate(-263.12 -205.995)" fill="#231815"/><path d="M429.884,214.4l-4.34,4.306v6.955h-3.458V218.71l-4.34-4.306a3.743,3.743,0,0,1-1.286-3.164V206h3.391v5.12c0,.712,0,.814.441,1.221l3.492,3.56,3.524-3.571c.441-.407.441-.509.441-1.221V206h3.424v5.255A3.732,3.732,0,0,1,429.884,214.4Z" transform="translate(-332.312 -205.995)" fill="#231815"/><path d="M610.829,210.557v10.511a4.556,4.556,0,0,1-4.815,4.577h-5.9a4.556,4.556,0,0,1-4.815-4.577V210.557a4.556,4.556,0,0,1,4.815-4.577h5.9A4.558,4.558,0,0,1,610.829,210.557Zm-3.391,10.68v-10.85a1.264,1.264,0,0,0-1.187-1.254h-6.385a1.264,1.264,0,0,0-1.187,1.254v10.85a1.263,1.263,0,0,0,1.187,1.248h6.374A1.264,1.264,0,0,0,607.438,221.237Z" transform="translate(-470.729 -205.98)" fill="#231815"/><path d="M249.878,210.557v10.511a4.556,4.556,0,0,1-4.814,4.577h-5.9a4.556,4.556,0,0,1-4.814-4.577V210.557a4.556,4.556,0,0,1,4.814-4.577h5.9A4.558,4.558,0,0,1,249.878,210.557Zm-3.39,10.68v-10.85a1.264,1.264,0,0,0-1.187-1.254h-6.374a1.264,1.264,0,0,0-1.187,1.254v10.85a1.263,1.263,0,0,0,1.187,1.248H245.3A1.264,1.264,0,0,0,246.488,221.237Z" transform="translate(-191.365 -205.98)" fill="#231815"/><path d="M697.986,225.665h-5.221a4.556,4.556,0,0,1-4.815-4.577V206h3.526v15.257a1.264,1.264,0,0,0,1.187,1.243h5.425a1.264,1.264,0,0,0,1.187-1.254V206H702.8v15.088A4.558,4.558,0,0,1,697.986,225.665Z" transform="translate(-542.437 -205.995)" fill="#231815"/><path d="M786.186,225.713h-5.221a4.556,4.556,0,0,1-4.815-4.577v-1.254h3.391v1.424a1.264,1.264,0,0,0,1.187,1.254h5.7a1.263,1.263,0,0,0,1.187-1.254v-2.543c0-2-4-1.322-6.51-1.39-2.746-.1-4.815-1.933-4.815-4.611v-2.2a4.556,4.556,0,0,1,4.815-4.577h4.814a4.556,4.556,0,0,1,4.814,4.577v1.288h-3.391v-1.458a1.263,1.263,0,0,0-1.187-1.254h-5.289a1.263,1.263,0,0,0-1.187,1.254v2.577c0,2,4,1.322,6.51,1.356A4.643,4.643,0,0,1,791,218.932v2.2A4.557,4.557,0,0,1,786.186,225.713Z" transform="translate(-610.7 -205.98)" fill="#231815"/><path d="M864.35,225.665V206H877.1v3.164H867.74v5.086H875v3.221H867.74V222.5H877.1v3.164Z" transform="translate(-678.964 -205.995)" fill="#231815"/><path d="M73.14,211.622a47.1,47.1,0,0,0-2.034-5.041,1.13,1.13,0,0,0-1-.6l-2.093.434a5.671,5.671,0,0,1-2.518-.052l-1.519-.377a1.232,1.232,0,0,0-1.047.583,45.616,45.616,0,0,0-2.38,5.059Z" transform="translate(-56.85 -205.98)" fill="#231815"/><path d="M16.833,32.45H3.033L0,33.684V34.71H3.248V44.78H6.657V34.71h6.673V44.78H16.74V34.71h3.07V33.662Z" transform="translate(0 -25.115)" fill="#231815"/><path d="M464.458,1.6V0H461V5.056Z" transform="translate(-356.799 0)" fill="#231815"/><path d="M461.467,0,460.8.662l.014.011-8.512,8.515-.014-.014-.283.283h2.032V19.665H457.5V9.457h7.934V19.665h3.458V9.457h2.032Z" transform="translate(-349.841 0)" fill="#231815"/></svg>